<?xml version="1.0" encoding="utf-8"?>
<!-- Generator: Adobe Illustrator 21.0.0, SVG Export Plug-In . SVG Version: 6.00 Build 0)  -->
<svg version="1.1" id="Layer_1" xmlns="http://www.w3.org/2000/svg" xmlns:xlink="http://www.w3.org/1999/xlink" x="0px" y="0px"
	 viewBox="-294 386.7 21.2 21.3" style="enable-background:new -294 386.7 21.2 21.3;" xml:space="preserve">
<g>
	<path d="M-283.4,393.79l0,4.16c0,0.16,0.06,0.31,0.17,0.42l2.97,2.97l0.84-0.84l-2.8-2.8l0-3.91H-283.4z"/>
	<path d="M-282.21,389.03c-4.18,0-7.64,3.11-8.22,7.13h-2.47l2.97,2.97l2.97-2.97h-2.27c0.57-3.37,3.5-5.94,7.02-5.94
		c3.93,0,7.13,3.2,7.13,7.13s-3.2,7.13-7.13,7.13c-2.21,0-4.26-1-5.62-2.74l-0.94,0.73c1.59,2.03,3.98,3.2,6.56,3.2
		c4.59,0,8.32-3.73,8.32-8.32S-277.63,389.03-282.21,389.03L-282.21,389.03z"/>
</g>
</svg>
