<?xml version="1.0" encoding="utf-8"?>
<!-- Generator: Adobe Illustrator 21.0.0, SVG Export Plug-In . SVG Version: 6.00 Build 0)  -->
<svg version="1.1" id="Layer_1" xmlns="http://www.w3.org/2000/svg" xmlns:xlink="http://www.w3.org/1999/xlink" x="0px" y="0px"
	 viewBox="-294 386.7 21.2 21.3" style="enable-background:new -294 386.7 21.2 21.3;" xml:space="preserve">
<g>
	<path d="M-274.45,396.75h-7.56c-0.33,0-0.6-0.27-0.6-0.6s0.27-0.6,0.6-0.6h7.56c0.33,0,0.6,0.27,0.6,0.6
		S-274.12,396.75-274.45,396.75z"/>
	<path d="M-277.43,399.74c-0.15,0-0.31-0.06-0.42-0.17c-0.23-0.23-0.23-0.61,0-0.84l2.56-2.56l-2.56-2.56
		c-0.23-0.23-0.23-0.61,0-0.84c0.23-0.23,0.61-0.23,0.84,0l2.98,2.98c0.23,0.23,0.23,0.61,0,0.84l-2.98,2.98
		C-277.13,399.68-277.28,399.74-277.43,399.74z"/>
	<path d="M-286.58,406.9c-0.17,0-0.33-0.02-0.49-0.07l-4.79-1.6c-0.65-0.23-1.08-0.83-1.08-1.51v-14.32c0-0.88,0.71-1.59,1.59-1.59
		c0.17,0,0.33,0.02,0.49,0.07l4.79,1.6c0.65,0.23,1.08,0.83,1.08,1.51v14.32C-284.99,406.18-285.71,406.9-286.58,406.9z
		 M-291.36,389c-0.22,0-0.4,0.18-0.4,0.4v14.32c0,0.17,0.11,0.33,0.28,0.38l4.77,1.59c0.03,0.01,0.08,0.02,0.13,0.02
		c0.22,0,0.4-0.18,0.4-0.4v-14.32c0-0.17-0.11-0.33-0.28-0.38l-4.77-1.59C-291.26,389-291.31,389-291.36,389z"/>
	<path d="M-280.81,394.17c-0.33,0-0.6-0.27-0.6-0.6v-3.58c0-0.55-0.45-0.99-0.99-0.99h-8.95c-0.33,0-0.6-0.27-0.6-0.6
		c0-0.33,0.27-0.6,0.6-0.6h8.95c1.21,0,2.19,0.98,2.19,2.19v3.58C-280.22,393.9-280.49,394.17-280.81,394.17z"/>
	<path d="M-282.41,404.51h-3.18c-0.33,0-0.6-0.27-0.6-0.6c0-0.33,0.27-0.6,0.6-0.6h3.18c0.55,0,0.99-0.45,0.99-0.99v-3.58
		c0-0.33,0.27-0.6,0.6-0.6c0.33,0,0.6,0.27,0.6,0.6v3.58C-280.22,403.53-281.2,404.51-282.41,404.51z"/>
</g>
</svg>
