<?xml version="1.0" encoding="utf-8"?>
<!-- Generator: Adobe Illustrator 21.0.0, SVG Export Plug-In . SVG Version: 6.00 Build 0)  -->
<svg version="1.1" id="Layer_1" xmlns="http://www.w3.org/2000/svg" xmlns:xlink="http://www.w3.org/1999/xlink" x="0px" y="0px"
	 viewBox="-294 386.7 21.2 21.3" style="enable-background:new -294 386.7 21.2 21.3;" xml:space="preserve">
<g>
	<g>
		<g>
			<path d="M-275.71,403.65l-0.87-10.92c-0.05-0.7-0.65-1.25-1.35-1.25h-1.71v-0.08c0-2.07-1.68-3.75-3.75-3.75
				c-2.07,0-3.75,1.68-3.75,3.75v0.08h-1.71c-0.71,0-1.3,0.55-1.35,1.25l-0.87,10.93c-0.07,0.87,0.24,1.75,0.83,2.39
				c0.6,0.64,1.44,1.01,2.32,1.01h9.07c0.88,0,1.72-0.37,2.32-1.01C-275.95,405.4-275.65,404.53-275.71,403.65z M-286.01,391.4
				c0-1.44,1.17-2.61,2.61-2.61c1.44,0,2.62,1.17,2.62,2.61v0.08h-5.23V391.4z M-277.38,405.27c-0.39,0.42-0.91,0.65-1.48,0.65
				h-9.07c-0.57,0-1.1-0.23-1.48-0.65c-0.39-0.42-0.58-0.96-0.53-1.53l0.87-10.93c0.01-0.11,0.11-0.2,0.22-0.2h1.71v1.4
				c0,0.31,0.25,0.57,0.57,0.57s0.57-0.25,0.57-0.57v-1.4h5.23v1.4c0,0.31,0.25,0.57,0.57,0.57s0.57-0.25,0.57-0.57v-1.4h1.71
				c0.12,0,0.21,0.09,0.22,0.21l0.87,10.92C-276.8,404.31-276.99,404.85-277.38,405.27z"/>
		</g>
	</g>
	<g>
		<g>
			<path d="M-280.84,397.29c-0.22-0.22-0.58-0.22-0.8,0l-2.54,2.54l-0.98-0.98c-0.22-0.22-0.58-0.22-0.8,0
				c-0.22,0.22-0.22,0.58,0,0.8l1.38,1.38c0.11,0.11,0.26,0.17,0.4,0.17s0.29-0.06,0.4-0.17l2.94-2.94
				C-280.62,397.87-280.62,397.51-280.84,397.29z"/>
		</g>
	</g>
</g>
</svg>
