<?xml version="1.0" encoding="utf-8"?>
<!-- Generator: Adobe Illustrator 21.0.0, SVG Export Plug-In . SVG Version: 6.00 Build 0)  -->
<svg version="1.1" id="Layer_1" xmlns="http://www.w3.org/2000/svg" xmlns:xlink="http://www.w3.org/1999/xlink" x="0px" y="0px"
	 viewBox="-294 386.7 21.2 21.3" style="enable-background:new -294 386.7 21.2 21.3;" xml:space="preserve">
<g>
	<g>
		<path d="M-282.51,406.89h-1.78c-0.6,0-1.11-0.45-1.18-1.05l-0.19-1.49c-0.38-0.12-0.74-0.27-1.09-0.45l-1.19,0.92
			c-0.48,0.37-1.16,0.33-1.58-0.1l-1.25-1.25c-0.43-0.41-0.47-1.09-0.1-1.57l0.92-1.19c-0.18-0.35-0.33-0.71-0.45-1.09l-1.49-0.19
			c-0.6-0.07-1.05-0.58-1.05-1.18v-1.78c0-0.6,0.45-1.11,1.05-1.18l1.49-0.19c0.12-0.38,0.27-0.74,0.45-1.09l-0.92-1.19
			c-0.37-0.48-0.33-1.16,0.1-1.58l1.25-1.25c0.41-0.43,1.09-0.47,1.57-0.1l1.19,0.92c0.35-0.18,0.71-0.33,1.09-0.45l0.19-1.49
			c0.07-0.6,0.58-1.05,1.18-1.05h1.78c0.6,0,1.11,0.45,1.18,1.05l0.19,1.49c0.38,0.12,0.75,0.27,1.09,0.45l1.19-0.92
			c0.48-0.37,1.16-0.33,1.58,0.1l1.25,1.25c0.43,0.41,0.47,1.09,0.1,1.57l-0.92,1.19c0.18,0.35,0.33,0.71,0.45,1.09l1.49,0.19
			c0.6,0.07,1.05,0.58,1.05,1.18v1.78c0,0.6-0.45,1.11-1.05,1.18l-1.49,0.19c-0.12,0.38-0.27,0.74-0.45,1.09l0.92,1.19
			c0.37,0.48,0.33,1.16-0.1,1.58l-1.25,1.25c-0.41,0.43-1.09,0.47-1.57,0.1l-1.19-0.92c-0.35,0.18-0.71,0.33-1.09,0.45l-0.19,1.49
			C-281.4,406.44-281.91,406.89-282.51,406.89L-282.51,406.89z M-286.79,403.02c0.07,0,0.13,0.02,0.19,0.05
			c0.44,0.24,0.91,0.44,1.41,0.58c0.15,0.04,0.26,0.17,0.28,0.33l0.22,1.75c0.02,0.2,0.2,0.35,0.39,0.35h1.78
			c0.2,0,0.37-0.15,0.39-0.35l0.22-1.75c0.02-0.16,0.13-0.29,0.28-0.33c0.5-0.14,0.97-0.34,1.41-0.58c0.14-0.08,0.31-0.06,0.44,0.03
			l1.39,1.08c0.16,0.12,0.38,0.11,0.52-0.03l1.26-1.26c0.14-0.14,0.15-0.36,0.03-0.52l-1.08-1.39c-0.1-0.13-0.11-0.3-0.03-0.44
			c0.24-0.44,0.44-0.91,0.58-1.41c0.04-0.15,0.17-0.26,0.33-0.28l1.75-0.22c0.2-0.02,0.35-0.2,0.35-0.39v-1.78
			c0-0.2-0.15-0.37-0.35-0.39l-1.75-0.22c-0.16-0.02-0.29-0.13-0.33-0.28c-0.14-0.5-0.34-0.97-0.58-1.41
			c-0.08-0.14-0.07-0.31,0.03-0.44l1.08-1.39c0.12-0.16,0.11-0.38-0.03-0.52l-1.26-1.26c-0.14-0.14-0.36-0.16-0.52-0.03l-1.39,1.08
			c-0.13,0.1-0.3,0.11-0.44,0.03c-0.44-0.24-0.91-0.44-1.41-0.58c-0.15-0.04-0.26-0.17-0.28-0.33l-0.22-1.75
			c-0.02-0.2-0.2-0.35-0.39-0.35h-1.78c-0.2,0-0.37,0.15-0.39,0.35l-0.22,1.75c-0.02,0.16-0.13,0.29-0.28,0.33
			c-0.5,0.14-0.97,0.34-1.41,0.58c-0.14,0.08-0.31,0.06-0.44-0.03l-1.39-1.08c-0.16-0.12-0.38-0.11-0.52,0.03l-1.26,1.26
			c-0.14,0.14-0.15,0.36-0.03,0.52l1.08,1.39c0.1,0.13,0.11,0.3,0.03,0.44c-0.25,0.44-0.44,0.91-0.58,1.41
			c-0.04,0.15-0.17,0.26-0.33,0.28l-1.75,0.22c-0.2,0.02-0.35,0.2-0.35,0.39v1.78c0,0.2,0.15,0.37,0.35,0.39l1.75,0.22
			c0.16,0.02,0.29,0.13,0.33,0.28c0.14,0.5,0.34,0.97,0.58,1.41c0.08,0.14,0.07,0.31-0.03,0.44l-1.08,1.39
			c-0.12,0.16-0.11,0.38,0.03,0.52l1.26,1.26c0.14,0.14,0.36,0.15,0.52,0.03l1.39-1.08C-286.97,403.05-286.88,403.02-286.79,403.02
			L-286.79,403.02z"/>
	</g>
	<g>
		<path d="M-283.4,401.32c-2.19,0-3.97-1.78-3.97-3.97s1.78-3.97,3.97-3.97s3.97,1.78,3.97,3.97S-281.21,401.32-283.4,401.32z
			 M-283.4,394.17c-1.75,0-3.18,1.43-3.18,3.18s1.43,3.18,3.18,3.18s3.18-1.43,3.18-3.18S-281.65,394.17-283.4,394.17z"/>
	</g>
</g>
</svg>
