<?xml version="1.0" encoding="utf-8"?>
<!-- Generator: Adobe Illustrator 21.0.0, SVG Export Plug-In . SVG Version: 6.00 Build 0)  -->
<svg version="1.1" id="Layer_1" xmlns="http://www.w3.org/2000/svg" xmlns:xlink="http://www.w3.org/1999/xlink" x="0px" y="0px"
	 viewBox="-294 386.7 21.2 21.3" style="enable-background:new -294 386.7 21.2 21.3;" xml:space="preserve">
<g>
	<path d="M-292.18,406.88c-0.19,0-0.38-0.07-0.52-0.21c-0.22-0.21-0.29-0.53-0.17-0.81l1.69-4.18c-1.14-1.49-1.74-3.23-1.74-5.07
		c0-2.36,1-4.57,2.81-6.23c1.8-1.64,4.18-2.55,6.71-2.55s4.92,0.91,6.71,2.55c1.81,1.66,2.81,3.87,2.81,6.23
		c0,1.69-0.52,3.33-1.51,4.75c-0.24,0.34-0.7,0.42-1.04,0.18c-0.34-0.24-0.42-0.7-0.18-1.04c0.81-1.16,1.24-2.51,1.24-3.9
		c0-4.02-3.61-7.29-8.04-7.29c-4.43,0-8.04,3.27-8.04,7.29c0,1.63,0.58,3.17,1.68,4.46c0.18,0.21,0.23,0.5,0.12,0.76l-1.17,2.89
		l3.4-1.5c0.19-0.08,0.4-0.08,0.59,0c1.07,0.46,2.22,0.69,3.41,0.69c1.37,0,2.73-0.32,3.92-0.92c0.37-0.19,0.81-0.04,1,0.33
		c0.19,0.37,0.04,0.81-0.33,1c-1.4,0.71-2.99,1.09-4.59,1.09c-1.28,0-2.52-0.23-3.69-0.69l-4.79,2.11
		C-291.98,406.85-292.08,406.88-292.18,406.88z M-282.66,399.92v-4.02c0-0.41-0.33-0.74-0.74-0.74s-0.74,0.33-0.74,0.74v4.02
		c0,0.41,0.33,0.74,0.74,0.74S-282.66,400.33-282.66,399.92z M-283.4,392.59c-0.41,0-0.74,0.33-0.74,0.74l0,0
		c0,0.41,0.33,0.74,0.74,0.74s0.74-0.33,0.74-0.74l0,0C-282.66,392.92-282.99,392.59-283.4,392.59z"/>
</g>
</svg>
