<?xml version="1.0" encoding="utf-8"?>
<!-- Generator: Adobe Illustrator 21.0.0, SVG Export Plug-In . SVG Version: 6.00 Build 0)  -->
<svg version="1.1" id="Layer_1" xmlns="http://www.w3.org/2000/svg" xmlns:xlink="http://www.w3.org/1999/xlink" x="0px" y="0px"
	 viewBox="-294 386.7 21.2 21.3" style="enable-background:new -294 386.7 21.2 21.3;" xml:space="preserve">
<g>
	<path d="M-279.07,387.65h-8.65c-0.72,0-1.31,0.59-1.31,1.31v16.78c0,0.72,0.59,1.31,1.31,1.31h8.65c0.72,0,1.31-0.59,1.31-1.31
		v-16.78C-277.76,388.24-278.35,387.65-279.07,387.65z M-284.78,388.59h2.77c0.09,0,0.16,0.07,0.16,0.16c0,0.09-0.07,0.16-0.16,0.16
		h-2.77c-0.09,0-0.16-0.07-0.16-0.16C-284.94,388.66-284.87,388.59-284.78,388.59z M-283.4,406.4c-0.36,0-0.66-0.29-0.66-0.66
		c0-0.36,0.29-0.66,0.66-0.66s0.66,0.29,0.66,0.66C-282.74,406.1-283.04,406.4-283.4,406.4z M-278.68,404.63h-9.45v-14.9h9.45
		V404.63z"/>
</g>
</svg>
