<?xml version="1.0" encoding="utf-8"?>
<!-- Generator: Adobe Illustrator 21.0.0, SVG Export Plug-In . SVG Version: 6.00 Build 0)  -->
<svg version="1.1" id="Layer_1" xmlns="http://www.w3.org/2000/svg" xmlns:xlink="http://www.w3.org/1999/xlink" x="0px" y="0px"
	 viewBox="-294 386.7 21.2 21.3" style="enable-background:new -294 386.7 21.2 21.3;" xml:space="preserve">
<g>
	<g>
		<path d="M-275.54,389.75h-15.72c-0.92,0-1.68,0.75-1.68,1.68v11.18c0,0.92,0.75,1.68,1.68,1.68h15.72c0.92,0,1.68-0.75,1.68-1.68
			v-11.18C-273.86,390.5-274.61,389.75-275.54,389.75z M-275.77,390.87l-7.59,7.59l-7.66-7.59H-275.77z M-291.82,402.37v-10.72
			l5.38,5.34L-291.82,402.37z M-291.03,403.16l5.39-5.39l1.89,1.87c0.22,0.22,0.57,0.22,0.79,0l1.84-1.84l5.36,5.36H-291.03z
			 M-274.98,402.37l-5.36-5.36l5.36-5.36V402.37z"/>
	</g>
</g>
</svg>
