<?xml version="1.0" encoding="utf-8"?>
<!-- Generator: Adobe Illustrator 21.0.0, SVG Export Plug-In . SVG Version: 6.00 Build 0)  -->
<svg version="1.1" id="Layer_1" xmlns="http://www.w3.org/2000/svg" xmlns:xlink="http://www.w3.org/1999/xlink" x="0px" y="0px"
	 viewBox="-294 386.7 21.2 21.3" style="enable-background:new -294 386.7 21.2 21.3;" xml:space="preserve">
<g>
	<path d="M-278,406.95h-10.8c-0.99,0-1.8-0.81-1.8-1.8v-8.4c0-0.99,0.81-1.8,1.8-1.8h10.8c0.99,0,1.8,0.81,1.8,1.8v8.4
		C-276.2,406.14-277.01,406.95-278,406.95z M-288.8,396.15c-0.33,0-0.6,0.27-0.6,0.6v8.4c0,0.33,0.27,0.6,0.6,0.6h10.8
		c0.33,0,0.6-0.27,0.6-0.6v-8.4c0-0.33-0.27-0.6-0.6-0.6H-288.8z"/>
	<path d="M-279.2,396.15c-0.33,0-0.6-0.27-0.6-0.6v-3c0-1.98-1.62-3.6-3.6-3.6s-3.6,1.62-3.6,3.6v3c0,0.33-0.27,0.6-0.6,0.6
		c-0.33,0-0.6-0.27-0.6-0.6v-3c0-2.65,2.15-4.8,4.8-4.8c2.65,0,4.8,2.15,4.8,4.8v3C-278.6,395.88-278.87,396.15-279.2,396.15z"/>
	<path d="M-283.4,401.35c-0.88,0-1.6-0.72-1.6-1.6c0-0.88,0.72-1.6,1.6-1.6c0.88,0,1.6,0.72,1.6,1.6
		C-281.8,400.63-282.52,401.35-283.4,401.35z M-283.4,399.35c-0.22,0-0.4,0.18-0.4,0.4s0.18,0.4,0.4,0.4s0.4-0.18,0.4-0.4
		S-283.18,399.35-283.4,399.35z"/>
	<path d="M-283.4,403.75c-0.33,0-0.6-0.27-0.6-0.6v-2.2c0-0.33,0.27-0.6,0.6-0.6s0.6,0.27,0.6,0.6v2.2
		C-282.8,403.48-283.07,403.75-283.4,403.75z"/>
</g>
</svg>
