<?xml version="1.0" encoding="utf-8"?>
<!-- Generator: Adobe Illustrator 21.0.0, SVG Export Plug-In . SVG Version: 6.00 Build 0)  -->
<svg version="1.1" id="Layer_1" xmlns="http://www.w3.org/2000/svg" xmlns:xlink="http://www.w3.org/1999/xlink" x="0px" y="0px"
	 viewBox="-294 386.7 21.2 21.3" style="enable-background:new -294 386.7 21.2 21.3;" xml:space="preserve">
<g>
	<g>
		<g>
			<path d="M-282.65,400.02L-282.65,400.02l-2.2-2.18l0.03-0.03c1.51-1.68,2.58-3.62,3.22-5.66h2.54v-1.74h-6.07v-1.73h-1.73v1.73
				h-6.07v1.73h9.68c-0.59,1.67-1.5,3.26-2.75,4.65c-0.81-0.9-1.47-1.87-2-2.9h-1.73c0.63,1.41,1.5,2.75,2.58,3.95l-4.41,4.36
				l1.23,1.23l4.33-4.33l2.7,2.7L-282.65,400.02z"/>
			<path d="M-277.76,395.62h-1.73l-3.9,10.4h1.73l0.98-2.6h4.12l0.98,2.6h1.73L-277.76,395.62z M-280.04,401.68l1.41-3.76l1.41,3.76
				H-280.04z"/>
		</g>
	</g>
</g>
</svg>
