<?xml version="1.0" encoding="utf-8"?>
<!-- Generator: Adobe Illustrator 21.0.0, SVG Export Plug-In . SVG Version: 6.00 Build 0)  -->
<svg version="1.1" id="Layer_1" xmlns="http://www.w3.org/2000/svg" xmlns:xlink="http://www.w3.org/1999/xlink" x="0px" y="0px"
	 viewBox="-294 386.7 21.2 21.3" style="enable-background:new -294 386.7 21.2 21.3;" xml:space="preserve">
<g>
	<path d="M-276.17,391.6l-3.79-3.79c-0.11-0.11-0.25-0.17-0.4-0.17h-8.34c-1.15,0-2.09,0.94-2.09,2.09v15.24
		c0,1.15,0.94,2.09,2.09,2.09h10.61c1.15,0,2.09-0.94,2.09-2.09V392C-276.01,391.85-276.07,391.71-276.17,391.6z M-279.8,389.59
		l1.85,1.85h-1.85V389.59z M-278.09,405.92h-10.61c-0.52,0-0.95-0.43-0.95-0.95v-15.24c0-0.52,0.43-0.95,0.95-0.95h7.77V392
		c0,0.31,0.25,0.57,0.57,0.57h3.22v12.4C-277.14,405.49-277.57,405.92-278.09,405.92z"/>
	<path d="M-279.61,395.3c-0.72,0-1.36-0.4-1.69-1.04l-0.08-0.16c-0.1-0.19-0.29-0.31-0.51-0.31h-3.03c-0.22,0-0.41,0.12-0.51,0.31
		l-0.08,0.16c-0.32,0.64-0.97,1.04-1.69,1.04c-0.31,0-0.57,0.25-0.57,0.57v3.24c0,1.28,0.4,2.49,1.16,3.51
		c0.76,1.02,1.81,1.76,3.03,2.13c0.05,0.02,0.11,0.02,0.16,0.02s0.11-0.01,0.16-0.02c1.22-0.37,2.27-1.1,3.03-2.13
		c0.76-1.02,1.16-2.24,1.16-3.51v-3.24C-279.04,395.56-279.29,395.3-279.61,395.3L-279.61,395.3z M-280.18,399.12
		c0,2.06-1.29,3.84-3.22,4.5c-1.93-0.65-3.22-2.44-3.22-4.5v-2.73c0.86-0.16,1.61-0.69,2.05-1.46h2.34c0.44,0.77,1.19,1.3,2.05,1.46
		V399.12z"/>
	<path d="M-282.19,397.81l-1.74,1.74l-0.67-0.67c-0.22-0.22-0.58-0.22-0.8,0s-0.22,0.58,0,0.8l1.07,1.07
		c0.11,0.11,0.26,0.17,0.4,0.17s0.29-0.06,0.4-0.17l2.14-2.14c0.22-0.22,0.22-0.58,0-0.8
		C-281.61,397.59-281.97,397.59-282.19,397.81z"/>
</g>
</svg>
