<?xml version="1.0" encoding="utf-8"?>
<!-- Generator: Adobe Illustrator 21.0.0, SVG Export Plug-In . SVG Version: 6.00 Build 0)  -->
<svg version="1.1" id="Layer_1" xmlns="http://www.w3.org/2000/svg" xmlns:xlink="http://www.w3.org/1999/xlink" x="0px" y="0px"
	 viewBox="-294 386.7 21.2 21.3" style="enable-background:new -294 386.7 21.2 21.3;" xml:space="preserve">
<g>
	<path d="M-291.05,387.65v19.41h11.32l3.97-3.97v-15.44H-291.05z M-289.91,388.78h13.02v13.26h-3.88v3.88h-9.14L-289.91,388.78
		L-289.91,388.78z M-277.46,403.18l-2.18,2.18v-2.18H-277.46z"/>
	<path d="M-285.83,391.12h4.85v1.14h-4.85V391.12z"/>
	<path d="M-288.05,393.95h9.3v1.14h-9.3V393.95z"/>
	<path d="M-288.05,396.38h9.3v1.14h-9.3V396.38z"/>
	<path d="M-288.05,398.8h9.3v1.14h-9.3V398.8z"/>
	<path d="M-288.05,402.04h1.19v1.14h-1.19V402.04z"/>
	<path d="M-285.72,402.04h2.32v1.14h-2.32V402.04z"/>
</g>
</svg>
