<?xml version="1.0" encoding="utf-8"?>
<!-- Generator: Adobe Illustrator 21.0.0, SVG Export Plug-In . SVG Version: 6.00 Build 0)  -->
<svg version="1.1" id="Layer_1" xmlns="http://www.w3.org/2000/svg" xmlns:xlink="http://www.w3.org/1999/xlink" x="0px" y="0px"
	 viewBox="-294 386.7 21.2 21.3" style="enable-background:new -294 386.7 21.2 21.3;" xml:space="preserve">
<g>
	<path d="M-276.24,392.41l-4.51-4.51c-0.11-0.11-0.25-0.17-0.4-0.17h-7.89c-0.93,0-1.69,0.76-1.69,1.69v15.85
		c0,0.93,0.76,1.69,1.69,1.69h11.27c0.93,0,1.69-0.76,1.69-1.69V392.8C-276.08,392.65-276.14,392.51-276.24,392.41z M-280.58,389.66
		l2.58,2.58h-2.02c-0.31,0-0.56-0.25-0.56-0.56V389.66z M-277.77,405.84h-11.27c-0.31,0-0.56-0.25-0.56-0.56v-15.85
		c0-0.31,0.25-0.56,0.56-0.56h7.32v2.82c0,0.93,0.76,1.69,1.69,1.69h2.82v11.91C-277.2,405.59-277.45,405.84-277.77,405.84z"/>
	<path d="M-280.02,395.7h-6.76c-0.31,0-0.56,0.25-0.56,0.56c0,0.31,0.25,0.56,0.56,0.56h6.76c0.31,0,0.56-0.25,0.56-0.56
		C-279.46,395.95-279.71,395.7-280.02,395.7z"/>
	<path d="M-280.02,397.95h-6.76c-0.31,0-0.56,0.25-0.56,0.56c0,0.31,0.25,0.56,0.56,0.56h6.76c0.31,0,0.56-0.25,0.56-0.56
		C-279.46,398.2-279.71,397.95-280.02,397.95z"/>
	<path d="M-280.02,400.2h-6.76c-0.31,0-0.56,0.25-0.56,0.56s0.25,0.56,0.56,0.56h6.76c0.31,0,0.56-0.25,0.56-0.56
		S-279.71,400.2-280.02,400.2z"/>
	<path d="M-282.27,402.46h-4.51c-0.31,0-0.56,0.25-0.56,0.56c0,0.31,0.25,0.56,0.56,0.56h4.51c0.31,0,0.56-0.25,0.56-0.56
		C-281.71,402.71-281.96,402.46-282.27,402.46z"/>
</g>
</svg>
