<?xml version="1.0" encoding="utf-8"?>
<!-- Generator: Adobe Illustrator 21.0.0, SVG Export Plug-In . SVG Version: 6.00 Build 0)  -->
<svg version="1.1" id="Layer_1" xmlns="http://www.w3.org/2000/svg" xmlns:xlink="http://www.w3.org/1999/xlink" x="0px" y="0px"
	 viewBox="-294 386.7 21.2 21.3" style="enable-background:new -294 386.7 21.2 21.3;" xml:space="preserve">
<g>
	<path d="M-273.86,393.03c0-0.09-0.05-0.18-0.13-0.23l-5.91-3.74c-0.03-0.02-0.06-0.03-0.09-0.04l-5.98-1.2
		c-0.3-0.06-0.46,0.35-0.2,0.51l2.68,1.69l-2.15,0.64l-1.83-1.16c-0.09-0.06-0.21-0.06-0.3,0l-2.21,1.45
		c-0.29,0.19,0,0.67,0.31,0.47l2.06-1.35l5.39,3.41l-4.51,2.95l-5.39-3.41l1.21-0.79c0.29-0.19,0-0.67-0.31-0.47l-1.58,1.03
		c-0.08,0.05-0.13,0.14-0.13,0.23v9.83c0,0.1,0.05,0.18,0.13,0.24l5.91,3.74c0.07,0.04,0.15,0.05,0.23,0.03l10.24-3.04
		c0.34-0.1,0.19-0.64-0.16-0.54l-9.88,2.93v-9.25l12.05-3.58v9.25l-0.76,0.23c-0.34,0.1-0.19,0.64,0.16,0.54l0.96-0.29
		c0.12-0.04,0.2-0.14,0.2-0.27L-273.86,393.03C-273.86,393.03-273.86,393.03-273.86,393.03L-273.86,393.03z M-280.16,389.55
		l4.59,2.91l-4.45-0.89l-4.59-2.91L-280.16,389.55z M-281.58,393.25l-3.46-2.19l2.15-0.64l2.6,1.65c0.03,0.02,0.06,0.03,0.09,0.04
		l4.88,0.98l-9.7,2.88l3.43-2.24c0.08-0.05,0.13-0.14,0.13-0.24C-281.45,393.39-281.5,393.3-281.58,393.25z M-292.38,393.54
		l5.35,3.39v9.17l-5.35-3.39V393.54z"/>
	<path d="M-275.55,398.75c-0.07-0.05-0.16-0.07-0.25-0.04l-9.45,2.81c-0.12,0.04-0.2,0.14-0.2,0.27v2.73c0,0.09,0.04,0.17,0.11,0.22
		c0.05,0.04,0.11,0.06,0.17,0.06c0.03,0,0.05,0,0.08-0.01l9.45-2.81c0.12-0.04,0.2-0.14,0.2-0.27v-2.73
		C-275.44,398.88-275.48,398.8-275.55,398.75L-275.55,398.75z M-276,401.49l-8.89,2.65v-2.14l8.89-2.65V401.49z"/>
	<path d="M-282.07,402.91c0.15,0,0.28-0.13,0.28-0.28v-0.79c0-0.35-0.56-0.37-0.56,0v0.79
		C-282.35,402.79-282.23,402.91-282.07,402.91z"/>
	<path d="M-278.36,401.78c0.15,0,0.28-0.13,0.28-0.28v-0.79c0-0.35-0.56-0.37-0.56,0v0.79
		C-278.64,401.65-278.52,401.78-278.36,401.78z"/>
	<path d="M-277.54,401.55c0.15,0,0.28-0.13,0.28-0.28v-0.79c0-0.35-0.56-0.37-0.56,0v0.79
		C-277.82,401.43-277.69,401.55-277.54,401.55z"/>
	<path d="M-276.71,401.33c0.15,0,0.28-0.13,0.28-0.28v-0.79c0-0.35-0.56-0.37-0.56,0v0.79
		C-276.99,401.2-276.87,401.33-276.71,401.33z"/>
	<path d="M-284.17,403.54c0.15,0,0.28-0.13,0.28-0.28v-0.79c0-0.35-0.56-0.37-0.56,0v0.79
		C-284.45,403.41-284.32,403.54-284.17,403.54z"/>
	<path d="M-283.36,403.34c0.15,0,0.28-0.13,0.28-0.28v-0.79c0-0.35-0.56-0.37-0.56,0v0.79
		C-283.64,403.21-283.52,403.34-283.36,403.34z"/>
	<path d="M-280.61,402.46c0.15,0,0.28-0.13,0.28-0.28v-0.79c0-0.35-0.56-0.37-0.56,0v0.79
		C-280.89,402.34-280.77,402.46-280.61,402.46z"/>
	<path d="M-279.82,402.26c0.15,0,0.28-0.13,0.28-0.28v-0.79c0-0.35-0.56-0.37-0.56,0v0.79
		C-280.1,402.13-279.98,402.26-279.82,402.26z"/>
</g>
</svg>
