<?xml version="1.0" encoding="utf-8"?>
<!-- Generator: Adobe Illustrator 21.0.0, SVG Export Plug-In . SVG Version: 6.00 Build 0)  -->
<svg version="1.1" id="Layer_1" xmlns="http://www.w3.org/2000/svg" xmlns:xlink="http://www.w3.org/1999/xlink" x="0px" y="0px"
	 viewBox="-294 386.7 21.2 21.3" style="enable-background:new -294 386.7 21.2 21.3;" xml:space="preserve">
<g>
	<g>
		<path d="M-277.77,400.2c-1.11,0-2.1,0.54-2.71,1.37l-5.3-2.71c0.09-0.3,0.14-0.62,0.14-0.95c0-0.45-0.09-0.87-0.25-1.27l5.55-3.34
			c0.62,0.73,1.54,1.19,2.57,1.19c1.86,0,3.38-1.51,3.38-3.38c0-1.86-1.51-3.38-3.38-3.38c-1.86,0-3.38,1.51-3.38,3.38
			c0,0.43,0.08,0.84,0.23,1.22l-5.57,3.34c-0.62-0.71-1.53-1.15-2.54-1.15c-1.86,0-3.38,1.51-3.38,3.38c0,1.86,1.51,3.38,3.38,3.38
			c1.13,0,2.13-0.56,2.74-1.41l5.28,2.7c-0.1,0.32-0.15,0.65-0.15,1c0,1.86,1.51,3.38,3.38,3.38c1.86,0,3.38-1.51,3.38-3.38
			S-275.91,400.2-277.77,400.2z M-277.77,388.88c1.24,0,2.25,1.01,2.25,2.25c0,1.24-1.01,2.25-2.25,2.25
			c-1.24,0-2.25-1.01-2.25-2.25C-280.02,389.88-279.02,388.88-277.77,388.88z M-289.02,400.16c-1.24,0-2.25-1.01-2.25-2.25
			c0-1.24,1.01-2.25,2.25-2.25c1.24,0,2.25,1.01,2.25,2.25C-286.77,399.15-287.78,400.16-289.02,400.16z M-277.77,405.83
			c-1.24,0-2.25-1.01-2.25-2.25s1.01-2.25,2.25-2.25c1.24,0,2.25,1.01,2.25,2.25S-276.53,405.83-277.77,405.83z"/>
	</g>
</g>
</svg>
