<?xml version="1.0" encoding="utf-8"?>
<!-- Generator: Adobe Illustrator 21.0.0, SVG Export Plug-In . SVG Version: 6.00 Build 0)  -->
<svg version="1.1" id="Layer_1" xmlns="http://www.w3.org/2000/svg" xmlns:xlink="http://www.w3.org/1999/xlink" x="0px" y="0px"
	 viewBox="-294 386.7 21.2 21.3" style="enable-background:new -294 386.7 21.2 21.3;" xml:space="preserve">
<path d="M-276.66,390.61c-1.8-1.8-4.2-2.79-6.74-2.79c-2.55,0-4.94,0.99-6.74,2.79s-2.79,4.2-2.79,6.74c0,2.55,0.99,4.94,2.79,6.74
	s4.2,2.79,6.74,2.79c2.55,0,4.94-0.99,6.74-2.79s2.79-4.2,2.79-6.74C-273.86,394.8-274.86,392.41-276.66,390.61z M-288.16,404.29
	c0.4-2.3,2.39-3.99,4.76-3.99c2.37,0,4.36,1.69,4.76,3.99c-1.35,0.93-2.99,1.48-4.76,1.48S-286.8,405.22-288.16,404.29z
	 M-286.43,396.15c0-1.67,1.36-3.03,3.03-3.03s3.03,1.36,3.03,3.03c0,1.67-1.36,3.03-3.03,3.03S-286.43,397.82-286.43,396.15z
	 M-277.68,403.52c-0.3-1.07-0.9-2.04-1.74-2.8c-0.51-0.46-1.1-0.83-1.73-1.09c1.14-0.74,1.89-2.02,1.89-3.48
	c0-2.29-1.86-4.15-4.15-4.15s-4.15,1.86-4.15,4.15c0,1.45,0.75,2.74,1.89,3.48c-0.63,0.26-1.21,0.63-1.73,1.09
	c-0.84,0.76-1.43,1.73-1.74,2.8c-1.66-1.54-2.7-3.73-2.7-6.17c0-4.64,3.78-8.42,8.42-8.42s8.42,3.78,8.42,8.42
	C-274.98,399.78-276.02,401.98-277.68,403.52z"/>
</svg>
